<?xml version="1.0" standalone="no"?>
<!DOCTYPE svg PUBLIC "-//W3C//DTD SVG 20010904//EN"
 "http://www.w3.org/TR/2001/REC-SVG-20010904/DTD/svg10.dtd">
<svg version="1.0" xmlns="http://www.w3.org/2000/svg"
 width="215.000000pt" height="115.000000pt" viewBox="0 0 215.000000 115.000000"
 preserveAspectRatio="xMidYMid meet">

<g transform="translate(0.000000,115.000000) scale(0.100000,-0.100000)"
fill="#000000" stroke="none">
<path d="M500 920 l0 -60 95 0 95 0 0 -275 0 -275 80 0 80 0 0 275 0 275 95 0
95 0 0 60 0 60 -270 0 -270 0 0 -60z"/>
<path d="M1176 766 l104 -214 0 -121 0 -121 80 0 80 0 0 120 0 120 105 210
c58 115 105 212 105 215 0 3 -35 5 -79 5 l-78 0 -59 -140 c-33 -77 -61 -139
-64 -139 -3 0 -31 62 -63 139 l-59 140 -88 0 -89 0 105 -214z"/>
</g>
</svg>
